<?xml version="1.0" encoding="utf-8"?>
<!-- Generator: Adobe Illustrator 24.1.1, SVG Export Plug-In . SVG Version: 6.00 Build 0)  -->
<svg version="1.1" id="Layer_1" xmlns="http://www.w3.org/2000/svg" xmlns:xlink="http://www.w3.org/1999/xlink" x="0px" y="0px"
	 viewBox="0 0 1080 1080" style="enable-background:new 0 0 1080 1080;" xml:space="preserve">
<style type="text/css">
	.st0{clip-path:url(#SVGID_2_);}
	.st1{fill:#220F60;}
</style>
<g>
	<defs>
		<rect id="SVGID_1_" width="1080" height="1080"/>
	</defs>
	<clipPath id="SVGID_2_">
		<use xlink:href="#SVGID_1_"  style="overflow:visible;"/>
	</clipPath>
	<g class="st0">
		<g>
			<path class="st1" d="M148.78,836.37v-57.68h-22.75v-13.41h61.95v13.41h-22.75v57.68H148.78z"/>
			<path class="st1" d="M183.91,836.37l31.68-71.09h16.25l31.79,71.09h-17.26l-26-62.76h6.5l-26.1,62.76H183.91z M199.76,821.13
				l4.37-12.49h36.56l4.47,12.49H199.76z"/>
			<path class="st1" d="M294.4,837.58c-5.69,0-11.14-0.76-16.35-2.29c-5.21-1.52-9.41-3.5-12.59-5.94l5.59-12.39
				c3.05,2.17,6.65,3.95,10.81,5.33c4.16,1.39,8.38,2.08,12.64,2.08c3.25,0,5.87-0.32,7.87-0.97c2-0.64,3.47-1.54,4.42-2.69
				c0.95-1.15,1.42-2.47,1.42-3.96c0-1.89-0.75-3.4-2.23-4.52c-1.49-1.12-3.45-2.03-5.89-2.74c-2.44-0.71-5.13-1.39-8.07-2.03
				c-2.94-0.64-5.89-1.44-8.84-2.39c-2.94-0.95-5.64-2.17-8.07-3.66c-2.44-1.49-4.42-3.45-5.94-5.89c-1.52-2.44-2.28-5.55-2.28-9.34
				c0-4.06,1.1-7.77,3.3-11.12c2.2-3.35,5.52-6.02,9.95-8.02c4.43-2,10-3,16.71-3c4.47,0,8.87,0.53,13.2,1.57
				c4.33,1.05,8.16,2.62,11.48,4.72l-5.08,12.49c-3.32-1.89-6.64-3.3-9.95-4.21c-3.32-0.91-6.57-1.37-9.75-1.37
				c-3.18,0-5.79,0.37-7.82,1.12c-2.03,0.75-3.49,1.71-4.37,2.89c-0.88,1.19-1.32,2.56-1.32,4.11c0,1.83,0.74,3.3,2.23,4.42
				c1.49,1.12,3.45,2.02,5.89,2.69c2.44,0.68,5.13,1.36,8.07,2.03c2.94,0.68,5.89,1.46,8.84,2.34c2.94,0.88,5.64,2.07,8.07,3.55
				c2.44,1.49,4.42,3.45,5.94,5.89c1.52,2.44,2.28,5.52,2.28,9.24c0,4-1.12,7.65-3.35,10.97c-2.23,3.32-5.57,5.99-10,8.02
				C306.77,836.57,301.17,837.58,294.4,837.58z"/>
			<path class="st1" d="M335.83,836.37v-71.09h16.35v71.09H335.83z M350.56,820.12l-0.91-18.99l34.02-35.85h18.28l-30.67,33.01
				l-9.14,9.75L350.56,820.12z M384.48,836.37l-25.29-30.97l10.76-11.68l33.71,42.65H384.48z"/>
			<path class="st1" d="M410.98,836.37v-71.09h13.61l30.26,50.17h-7.21l29.75-50.17h13.51l0.2,71.09h-15.44l-0.1-47.42h2.84
				l-23.76,39.91h-7.41l-24.27-39.91h3.45v47.42H410.98z"/>
			<path class="st1" d="M498.62,836.37l31.68-71.09h16.25l31.79,71.09h-17.26l-26-62.76h6.5l-26.1,62.76H498.62z M514.46,821.13
				l4.37-12.49h36.56l4.47,12.49H514.46z"/>
			<path class="st1" d="M585.75,836.37v-71.09h13.61l41.94,51.18h-6.6v-51.18h16.25v71.09h-13.51l-42.04-51.18h6.6v51.18H585.75z"/>
			<path class="st1" d="M658.46,836.37l31.68-71.09h16.25l31.79,71.09h-17.26l-26-62.76h6.5l-26.1,62.76H658.46z M674.3,821.13
				l4.37-12.49h36.56l4.47,12.49H674.3z"/>
			<path class="st1" d="M778.9,837.58c-5.62,0-10.78-0.9-15.49-2.69c-4.71-1.79-8.8-4.35-12.29-7.67
				c-3.49-3.32-6.19-7.21-8.12-11.68c-1.93-4.47-2.89-9.38-2.89-14.72c0-5.35,0.97-10.26,2.89-14.72c1.93-4.47,4.65-8.36,8.18-11.68
				c3.52-3.32,7.65-5.87,12.39-7.67c4.74-1.79,9.95-2.69,15.64-2.69c6.3,0,11.97,1.05,17.01,3.15c5.04,2.1,9.29,5.15,12.74,9.14
				l-10.56,9.75c-2.57-2.71-5.38-4.72-8.43-6.04c-3.05-1.32-6.36-1.98-9.95-1.98c-3.45,0-6.6,0.54-9.44,1.63
				c-2.84,1.08-5.3,2.64-7.36,4.67c-2.07,2.03-3.66,4.44-4.77,7.21c-1.12,2.78-1.68,5.86-1.68,9.24c0,3.32,0.56,6.36,1.68,9.14
				c1.12,2.78,2.71,5.2,4.77,7.26c2.06,2.07,4.5,3.64,7.31,4.72c2.81,1.08,5.9,1.62,9.29,1.62c3.25,0,6.41-0.52,9.5-1.57
				c3.08-1.05,6.07-2.83,8.99-5.33l9.34,11.88c-3.86,2.91-8.34,5.15-13.45,6.7C789.07,836.81,783.97,837.58,778.9,837.58z
				 M792.61,826.41v-26.71h15.03v28.84L792.61,826.41z"/>
			<path class="st1" d="M839.22,823.16h38.69v13.2h-55.04v-71.09h53.72v13.2h-37.37V823.16z M838,793.92h34.22v12.79H838V793.92z"/>
			<path class="st1" d="M891.01,836.37v-71.09h30.77c6.36,0,11.85,1.03,16.45,3.1c4.6,2.07,8.16,5.03,10.66,8.89
				c2.5,3.86,3.76,8.46,3.76,13.81c0,5.28-1.25,9.84-3.76,13.66c-2.51,3.83-6.06,6.75-10.66,8.78c-4.6,2.03-10.09,3.05-16.45,3.05
				h-21.63l7.31-7.21v27.01H891.01z M907.46,811.18l-7.31-7.72h20.72c5.08,0,8.87-1.1,11.37-3.3c2.5-2.2,3.76-5.23,3.76-9.09
				c0-3.92-1.25-6.97-3.76-9.14c-2.51-2.17-6.3-3.25-11.37-3.25h-20.72l7.31-7.82V811.18z M936.2,836.37l-17.77-25.79H936
				l17.97,25.79H936.2z"/>
		</g>
		<g>
			<g>
				<path class="st1" d="M489.08,640.36"/>
			</g>
			<g>
				<path class="st1" d="M503.89,663.63H381.18v-46.54h122.71c70.38,0,127.65-57.26,127.65-127.64V242.42h46.54v247.03
					C678.08,585.49,599.94,663.63,503.89,663.63z"/>
			</g>
			<rect x="454.51" y="325.63" class="st1" width="46.54" height="270.3"/>
			<g>
				<path class="st1" d="M433.37,432.77c-32.18,31.62-52.19,75.6-52.19,124.17h46.54c0-13.06,1.98-25.67,5.64-37.54V432.77z"/>
				<path class="st1" d="M588.14,279.09v275.37c-11.93,15.44-28.01,27.55-46.54,34.57V279.09H588.14z"/>
			</g>
		</g>
	</g>
</g>
</svg>
